%TF.GenerationSoftware,KiCad,Pcbnew,(5.99.0-8542-g320ca5a0d0)*%
%TF.CreationDate,2021-01-25T09:29:34-05:00*%
%TF.ProjectId,Memory Game,4d656d6f-7279-4204-9761-6d652e6b6963,rev?*%
%TF.SameCoordinates,Original*%
%TF.FileFunction,Copper,L2,Bot*%
%TF.FilePolarity,Positive*%
%FSLAX46Y46*%
G04 Gerber Fmt 4.6, Leading zero omitted, Abs format (unit mm)*
G04 Created by KiCad (PCBNEW (5.99.0-8542-g320ca5a0d0)) date 2021-01-25 09:29:34*
%MOMM*%
%LPD*%
G01*
G04 APERTURE LIST*
%TA.AperFunction,ComponentPad*%
%ADD10R,1.800000X1.800000*%
%TD*%
%TA.AperFunction,ComponentPad*%
%ADD11C,1.800000*%
%TD*%
%TA.AperFunction,ComponentPad*%
%ADD12C,2.200000*%
%TD*%
%TA.AperFunction,ComponentPad*%
%ADD13R,1.600000X1.600000*%
%TD*%
%TA.AperFunction,ComponentPad*%
%ADD14O,1.600000X1.600000*%
%TD*%
%TA.AperFunction,ComponentPad*%
%ADD15C,2.000000*%
%TD*%
%TA.AperFunction,ComponentPad*%
%ADD16R,2.000000X2.000000*%
%TD*%
%TA.AperFunction,ComponentPad*%
%ADD17O,1.700000X1.700000*%
%TD*%
%TA.AperFunction,ComponentPad*%
%ADD18R,1.700000X1.700000*%
%TD*%
%TA.AperFunction,ComponentPad*%
%ADD19C,1.600000*%
%TD*%
%TA.AperFunction,ViaPad*%
%ADD20C,0.800000*%
%TD*%
%TA.AperFunction,Conductor*%
%ADD21C,0.381000*%
%TD*%
G04 APERTURE END LIST*
D10*
%TO.P,RED,1,K*%
%TO.N,GND*%
X85000000Y-86270000D03*
D11*
%TO.P,RED,2,A*%
%TO.N,Net-(D1-Pad2)*%
X85000000Y-83730000D03*
%TD*%
D10*
%TO.P,BLUE,1,K*%
%TO.N,GND*%
X115000000Y-86270000D03*
D11*
%TO.P,BLUE,2,A*%
%TO.N,Net-(D2-Pad2)*%
X115000000Y-83730000D03*
%TD*%
D10*
%TO.P,GREEN,1,K*%
%TO.N,GND*%
X115000000Y-116270000D03*
D11*
%TO.P,GREEN,2,A*%
%TO.N,Net-(D3-Pad2)*%
X115000000Y-113730000D03*
%TD*%
D10*
%TO.P,YELLOW,1,K*%
%TO.N,GND*%
X85000000Y-116270000D03*
D11*
%TO.P,YELLOW,2,A*%
%TO.N,Net-(D4-Pad2)*%
X85000000Y-113730000D03*
%TD*%
D12*
%TO.P,SW1,1,1*%
%TO.N,BUTTON_1*%
X72750000Y-78250000D03*
X72750000Y-71750000D03*
%TO.P,SW1,2,2*%
%TO.N,GND*%
X77250000Y-71750000D03*
X77250000Y-78250000D03*
%TD*%
%TO.P,SW2,1,1*%
%TO.N,BUTTON_2*%
X122750000Y-78250000D03*
X122750000Y-71750000D03*
%TO.P,SW2,2,2*%
%TO.N,GND*%
X127250000Y-71750000D03*
X127250000Y-78250000D03*
%TD*%
%TO.P,SW3,1,1*%
%TO.N,BUTTON_3*%
X122750000Y-121750000D03*
X122750000Y-128250000D03*
%TO.P,SW3,2,2*%
%TO.N,GND*%
X127250000Y-128250000D03*
X127250000Y-121750000D03*
%TD*%
%TO.P,SW4,1,1*%
%TO.N,BUTTON_4*%
X72750000Y-128250000D03*
X72750000Y-121750000D03*
%TO.P,SW4,2,2*%
%TO.N,GND*%
X77250000Y-128250000D03*
X77250000Y-121750000D03*
%TD*%
D13*
%TO.P,A1,1,D1/TX*%
%TO.N,STX*%
X92202000Y-105410000D03*
D14*
%TO.P,A1,2,D0/RX*%
%TO.N,SRX*%
X92202000Y-107950000D03*
%TO.P,A1,3,~RESET*%
%TO.N,RESET_2*%
X92202000Y-110490000D03*
%TO.P,A1,4,GND*%
%TO.N,GND*%
X92202000Y-113030000D03*
%TO.P,A1,5,D2*%
%TO.N,no_connect_(A1-Pad5)*%
X92202000Y-115570000D03*
%TO.P,A1,6,D3*%
%TO.N,no_connect_(A1-Pad6)*%
X92202000Y-118110000D03*
%TO.P,A1,7,D4*%
%TO.N,Speaker*%
X92202000Y-120650000D03*
%TO.P,A1,8,D5*%
%TO.N,BUTTON_1*%
X92202000Y-123190000D03*
%TO.P,A1,9,D6*%
%TO.N,LED_1*%
X92202000Y-125730000D03*
%TO.P,A1,10,D7*%
%TO.N,BUTTON_2*%
X92202000Y-128270000D03*
%TO.P,A1,11,D8*%
%TO.N,LED_2*%
X92202000Y-130810000D03*
%TO.P,A1,12,D9*%
%TO.N,LED_3*%
X92202000Y-133350000D03*
%TO.P,A1,13,D10*%
%TO.N,BUTTON_3*%
X92202000Y-135890000D03*
%TO.P,A1,14,D11*%
%TO.N,LED_4*%
X92202000Y-138430000D03*
%TO.P,A1,15,D12*%
%TO.N,BUTTON_4*%
X92202000Y-140970000D03*
%TO.P,A1,16,D13*%
%TO.N,BLINK*%
X107442000Y-140970000D03*
%TO.P,A1,17,3V3*%
%TO.N,no_connect_(A1-Pad17)*%
X107442000Y-138430000D03*
%TO.P,A1,18,AREF*%
%TO.N,no_connect_(A1-Pad18)*%
X107442000Y-135890000D03*
%TO.P,A1,19,A0*%
%TO.N,no_connect_(A1-Pad19)*%
X107442000Y-133350000D03*
%TO.P,A1,20,A1*%
%TO.N,no_connect_(A1-Pad20)*%
X107442000Y-130810000D03*
%TO.P,A1,21,A2*%
%TO.N,no_connect_(A1-Pad21)*%
X107442000Y-128270000D03*
%TO.P,A1,22,A3*%
%TO.N,no_connect_(A1-Pad22)*%
X107442000Y-125730000D03*
%TO.P,A1,23,A4*%
%TO.N,no_connect_(A1-Pad23)*%
X107442000Y-123190000D03*
%TO.P,A1,24,A5*%
%TO.N,no_connect_(A1-Pad24)*%
X107442000Y-120650000D03*
%TO.P,A1,25,A6*%
%TO.N,A6*%
X107442000Y-118110000D03*
%TO.P,A1,26,A7*%
%TO.N,A7*%
X107442000Y-115570000D03*
%TO.P,A1,27,+5V*%
%TO.N,no_connect_(A1-Pad27)*%
X107442000Y-113030000D03*
%TO.P,A1,28,~RESET*%
%TO.N,RESET_1*%
X107442000Y-110490000D03*
%TO.P,A1,29,GND*%
%TO.N,GND*%
X107442000Y-107950000D03*
%TO.P,A1,30,VIN*%
%TO.N,VCC*%
X107442000Y-105410000D03*
%TD*%
D15*
%TO.P,LS1,1,1*%
%TO.N,Net-(LS1-Pad1)*%
X96266000Y-86106000D03*
D16*
%TO.P,LS1,2,2*%
%TO.N,GND*%
X103866000Y-86106000D03*
%TD*%
D17*
%TO.P,J1,1,Pin_1*%
%TO.N,BATTERY*%
X98730000Y-75946000D03*
D18*
%TO.P,J1,2,Pin_2*%
%TO.N,GND*%
X101270000Y-75946000D03*
%TD*%
%TO.P,SW5,1,A*%
%TO.N,VCC*%
X97536000Y-94996000D03*
D17*
%TO.P,SW5,2,B*%
%TO.N,BATTERY*%
X100076000Y-94996000D03*
%TO.P,SW5,3,C*%
%TO.N,no_connect_(SW5-Pad3)*%
X102616000Y-94996000D03*
%TD*%
D19*
%TO.P,R1,1*%
%TO.N,Speaker*%
X91694000Y-100100000D03*
%TO.P,R1,2*%
%TO.N,Net-(LS1-Pad1)*%
X91694000Y-90100000D03*
%TD*%
%TO.P,R3,1*%
%TO.N,LED_2*%
X130000000Y-90000000D03*
%TO.P,R3,2*%
%TO.N,Net-(D2-Pad2)*%
X120000000Y-90000000D03*
%TD*%
%TO.P,R2,1*%
%TO.N,LED_1*%
X70000000Y-90000000D03*
%TO.P,R2,2*%
%TO.N,Net-(D1-Pad2)*%
X80000000Y-90000000D03*
%TD*%
%TO.P,R4,1*%
%TO.N,LED_3*%
X130000000Y-110000000D03*
%TO.P,R4,2*%
%TO.N,Net-(D3-Pad2)*%
X120000000Y-110000000D03*
%TD*%
%TO.P,R5,1*%
%TO.N,LED_4*%
X70000000Y-110000000D03*
%TO.P,R5,2*%
%TO.N,Net-(D4-Pad2)*%
X80000000Y-110000000D03*
%TD*%
D20*
%TO.N,BUTTON_2*%
X104902000Y-102108000D03*
X102870000Y-107950000D03*
%TO.N,LED_2*%
X103886000Y-107950000D03*
X104902000Y-103124000D03*
%TD*%
D21*
%TO.N,BUTTON_2*%
X102870000Y-103124000D02*
X103886000Y-102108000D01*
X103886000Y-102108000D02*
X104902000Y-102108000D01*
X102870000Y-107950000D02*
X102870000Y-103124000D01*
%TO.N,LED_2*%
X103691672Y-103124000D02*
X103451010Y-103364662D01*
X103451010Y-103364662D02*
X103451010Y-106753010D01*
X103451010Y-106753010D02*
X103886000Y-107188000D01*
X103886000Y-107188000D02*
X103886000Y-107950000D01*
X104902000Y-103124000D02*
X103691672Y-103124000D01*
%TD*%
M02*
