M48
; DRILL file {KiCad (5.99.0-8542-g320ca5a0d0)} date 01/25/21 09:29:42
; FORMAT={-:-/ absolute / metric / decimal}
; #@! TF.CreationDate,2021-01-25T09:29:42-05:00
; #@! TF.GenerationSoftware,Kicad,Pcbnew,(5.99.0-8542-g320ca5a0d0)
; #@! TF.FileFunction,Plated,1,2,PTH
FMAT,2
METRIC
T1C0.400
T2C0.800
T3C0.900
T4C1.000
T5C1.500
%
G90
G05
T1
X102.87Y-107.95
X103.886Y-107.95
X104.902Y-102.108
X104.902Y-103.124
T2
X70.0Y-90.0
X70.0Y-110.0
X80.0Y-90.0
X80.0Y-110.0
X91.694Y-90.1
X91.694Y-100.1
X120.0Y-90.0
X120.0Y-110.0
X130.0Y-90.0
X130.0Y-110.0
T3
X85.0Y-83.73
X85.0Y-86.27
X85.0Y-113.73
X85.0Y-116.27
X115.0Y-83.73
X115.0Y-86.27
X115.0Y-113.73
X115.0Y-116.27
T4
X92.202Y-105.41
X92.202Y-107.95
X92.202Y-110.49
X92.202Y-113.03
X92.202Y-115.57
X92.202Y-118.11
X92.202Y-120.65
X92.202Y-123.19
X92.202Y-125.73
X92.202Y-128.27
X92.202Y-130.81
X92.202Y-133.35
X92.202Y-135.89
X92.202Y-138.43
X92.202Y-140.97
X96.266Y-86.106
X97.536Y-94.996
X98.73Y-75.946
X100.076Y-94.996
X101.27Y-75.946
X102.616Y-94.996
X103.866Y-86.106
X107.442Y-105.41
X107.442Y-107.95
X107.442Y-110.49
X107.442Y-113.03
X107.442Y-115.57
X107.442Y-118.11
X107.442Y-120.65
X107.442Y-123.19
X107.442Y-125.73
X107.442Y-128.27
X107.442Y-130.81
X107.442Y-133.35
X107.442Y-135.89
X107.442Y-138.43
X107.442Y-140.97
T5
X72.75Y-71.75
X72.75Y-78.25
X72.75Y-121.75
X72.75Y-128.25
X77.25Y-71.75
X77.25Y-78.25
X77.25Y-121.75
X77.25Y-128.25
X122.75Y-71.75
X122.75Y-78.25
X122.75Y-121.75
X122.75Y-128.25
X127.25Y-71.75
X127.25Y-78.25
X127.25Y-121.75
X127.25Y-128.25
T0
M30
